<?xml version="1.0" standalone="no"?>
<!DOCTYPE svg PUBLIC "-//W3C//DTD SVG 20010904//EN"
 "http://www.w3.org/TR/2001/REC-SVG-20010904/DTD/svg10.dtd">
<svg version="1.0" xmlns="http://www.w3.org/2000/svg"
 width="672.000000pt" height="672.000000pt" viewBox="0 0 672.000000 672.000000"
 preserveAspectRatio="xMidYMid meet">
<metadata>
Created by potrace 1.11, written by Peter Selinger 2001-2013
</metadata>
<g transform="translate(0.000000,672.000000) scale(0.100000,-0.100000)"
fill="#000000" stroke="none">
<path d="M0 3360 l0 -3360 3360 0 3360 0 0 3360 0 3360 -3360 0 -3360 0 0
-3360z m4238 1934 c49 -20 90 -60 113 -109 18 -38 19 -109 19 -1850 0 -1233
-3 -1822 -11 -1848 -12 -44 -60 -102 -103 -124 -17 -9 -56 -16 -86 -17 -95 -1
-174 59 -200 153 -14 52 -14 3597 1 3655 29 118 159 186 267 140z m-791 -718
c36 -17 60 -38 80 -67 l28 -43 3 -1085 c2 -752 0 -1097 -8 -1123 -49 -170
-296 -186 -371 -23 -18 38 -19 92 -19 1126 l0 1086 23 43 c26 50 56 75 113 95
56 20 92 18 151 -9z m1621 -207 c29 -15 54 -37 73 -67 l29 -46 0 -848 c0 -815
-1 -850 -19 -886 -54 -105 -166 -140 -272 -84 -43 22 -59 38 -81 81 l-28 53 0
832 c0 787 1 833 19 871 48 104 172 145 279 94z m-3227 -327 c43 -22 59 -38
81 -81 l28 -53 0 -572 c0 -387 -4 -584 -11 -611 -15 -55 -82 -120 -139 -135
-89 -24 -188 20 -233 103 -22 42 -22 44 -25 595 -2 358 1 572 8 609 12 70 49
119 110 151 60 30 115 29 181 -6z m791 -236 c43 -18 86 -61 107 -106 13 -29
17 -86 19 -343 4 -365 -1 -398 -61 -462 -67 -68 -148 -83 -233 -40 -52 26 -88
70 -104 126 -6 19 -10 176 -10 354 0 316 1 321 24 371 23 49 59 84 107 103 36
15 112 13 151 -3z"/>
</g>
</svg>
