<svg xmlns="http://www.w3.org/2000/svg" viewBox="0 0 629.18 121"><defs><style>.cls-1{fill:#fff;}</style></defs><title>Asset 1</title><g id="Layer_2" data-name="Layer 2"><g id="Layer_1-2" data-name="Layer 1"><path class="cls-1" d="M211.1,9.16V92a1.77,1.77,0,0,1-2,2H196.56a1.76,1.76,0,0,1-2-2V85.19a23.78,23.78,0,0,1-19.39,9.69c-14.76,0-26.76-12.23-26.76-30.23s12-30.34,27.34-30.34a23,23,0,0,1,18.81,9.35V16.31c0-5.88-1.16-8.07-1.16-10.38a1.73,1.73,0,0,1,1.85-2H206C209.48,4,211.1,5.58,211.1,9.16ZM194.6,64.65c0-9.57-6.46-16.26-15.35-16.26-9.34,0-15.34,6.92-15.34,16.26s6,16.16,15.34,16.16C188.14,80.81,194.6,74.23,194.6,64.65Z"/><path class="cls-1" d="M263.3,41.35l-5.65,9.23a1.92,1.92,0,0,1-2.66.69,15.17,15.17,0,0,0-8.07-2.54c-5.2,0-8.89,3.12-11.08,7.62V92a1.83,1.83,0,0,1-1.73,2h-13a1.79,1.79,0,0,1-1.84-2V37A1.8,1.8,0,0,1,221,35.12h13.15A1.61,1.61,0,0,1,235.84,37v6.12c3.69-4.85,8.88-8.77,15.81-8.77a16.42,16.42,0,0,1,10.84,3.81C263.76,39.16,264.11,40.08,263.3,41.35Z"/><path class="cls-1" d="M261.47,64.65c0-18.11,13.73-30.34,31.15-30.34s31,12.23,31,30.34-13.73,30.23-31,30.23S261.47,82.65,261.47,64.65Zm47,0c0-9.34-6.58-16.26-15.81-16.26S276.7,55.31,276.7,64.65s6.58,16.16,15.92,16.16S308.43,74,308.43,64.65Z"/><path class="cls-1" d="M392.13,64.65c0,18-12,30.23-26.65,30.23a23.83,23.83,0,0,1-19.38-9.57v29a2.55,2.55,0,0,1-2.77,2.77H332.25a2.55,2.55,0,0,1-2.77-2.77V45.85a42,42,0,0,0-1-8.31c-.23-1.27.35-2.42,1.73-2.42H340.9c3.58,0,5.2,1.61,5.2,5.19v3.35a23,23,0,0,1,18.8-9.35C380.13,34.31,392.13,46.66,392.13,64.65Zm-15.35,0c0-9.34-6-16.26-15.46-16.26-8.76,0-15.22,6.69-15.22,16.26s6.46,16.16,15.22,16.16C370.79,80.81,376.78,74,376.78,64.65Z"/><path class="cls-1" d="M403.15,74V50h-6.58a1.82,1.82,0,0,1-1.84-1.85V45a2.52,2.52,0,0,1,1-2.54c8-6.34,12-11.19,17.08-23.07.58-.93,1.38-2,2.54-2h2.88a1.83,1.83,0,0,1,1.73,2V35.12h12.23a1.73,1.73,0,0,1,2,1.84V48.27a1.83,1.83,0,0,1-2,1.73h-8.88a13.28,13.28,0,0,1-3.58-.35V72.27c0,4.5,1.73,8,6.35,8a10.91,10.91,0,0,0,5-1.27c1-.46,1.84-.58,2.42.69l4.38,8.54c.58.92,0,1.62-.92,2.31-3.34,2.65-8.77,4.38-14.3,4.38C411,94.88,403.15,87.38,403.15,74Z"/><path class="cls-1" d="M499.54,37.08v55A1.73,1.73,0,0,1,497.81,94h-13a1.7,1.7,0,0,1-1.84-1.85v-7c-4,5.08-10,9.7-19.15,9.7-11.77,0-21.23-7.5-21.23-21.92v-27a51.65,51.65,0,0,0-.69-8.31c-.24-1.27.23-2.42,1.26-2.42h11.66c2.88,0,4.38,2,4.38,4.61V69c0,6.57,3.92,11.19,11,11.19,5.89,0,10.15-3.35,12.81-7.85V37.08a1.92,1.92,0,0,1,1.84-2H497.7A1.79,1.79,0,0,1,499.54,37.08Z"/><path class="cls-1" d="M564.05,94H552.28c-2.77,0-4.27-2-4.27-4.62V60c0-6.58-3.92-11.19-11.07-11.19-5.77,0-10.15,3.34-12.81,7.84V92a1.83,1.83,0,0,1-1.73,2h-13a1.79,1.79,0,0,1-1.85-2V37a1.8,1.8,0,0,1,1.73-1.84H522.4A1.61,1.61,0,0,1,524.13,37v7c4-5.07,10.16-9.69,19.27-9.69,11.65,0,21.23,7.5,21.23,21.92v27a52.28,52.28,0,0,0,.58,8.31C565.44,92.8,565,94,564.05,94Z"/><path class="cls-1" d="M618.1,70.65H587.18c2,6.12,7.5,11,18,11a21.8,21.8,0,0,0,13.15-4.27c1.27-.57,2.08-.69,3.12.7l2.77,3.8c.92,1.16.81,2.08-.23,3.47-4.62,5.88-12,9.57-21.92,9.57-18.35,0-31.5-12.11-31.5-30.23,0-17.3,11.88-30.34,29.88-30.34,18.58,0,28.73,13.27,28.73,27.34C629.18,67.08,626.29,70.65,618.1,70.65ZM586.84,59.46h26.65c-1.16-6.23-4.85-11.65-13-11.65C592.61,47.81,588.34,53,586.84,59.46Z"/><path class="cls-1" d="M74.46,6.21a6.21,6.21,0,1,1,12.41,0V114.79a6.21,6.21,0,1,1-12.41,0Z"/><path class="cls-1" d="M49.64,27.92a6.21,6.21,0,0,1,12.41,0V91.14a6.21,6.21,0,0,1-12.41,0Z"/><path class="cls-1" d="M99.28,34.13a6.21,6.21,0,1,1,12.41,0V82.22a6.21,6.21,0,0,1-12.41,0Z"/><path class="cls-1" d="M24.82,51.58a6.21,6.21,0,0,1,12.41,0V69.42a6.21,6.21,0,0,1-12.41,0Z"/><path class="cls-1" d="M0,44a6.21,6.21,0,1,1,12.41,0V77A6.21,6.21,0,1,1,0,77Z"/></g></g></svg>