<svg width="116" height="23" viewBox="0 0 116 23" fill="none" xmlns="http://www.w3.org/2000/svg">
<path d="M37.203 8.6146C36.8377 8.47188 36.4658 8.37457 36.0874 8.32267C35.7221 8.2578 35.4089 8.22537 35.1479 8.22537C34.7957 8.22537 34.4629 8.27726 34.1498 8.38106C33.8366 8.47188 33.5626 8.66649 33.3277 8.9649C33.0929 9.25034 32.9037 9.66552 32.7602 10.2104C32.6297 10.7554 32.5644 11.4819 32.5644 12.3901C32.5644 13.1167 32.6101 13.72 32.7014 14.2001C32.7928 14.6801 32.9233 15.0629 33.0929 15.3483C33.2756 15.6337 33.5039 15.8413 33.7779 15.9711C34.0519 16.0878 34.3716 16.1462 34.7369 16.1462C35.0762 16.1462 35.422 16.0878 35.7743 15.9711C36.1396 15.8413 36.6159 15.6013 37.203 15.251V8.6146ZM39.8257 17.3139C39.8257 18.0145 39.3886 18.3648 38.5143 18.3648C38.149 18.3648 37.8554 18.3 37.6336 18.1702C37.4118 18.0405 37.2944 17.8459 37.2813 17.5864L37.2617 17.1971H37.1834C36.8051 17.4307 36.4658 17.6253 36.1657 17.781C35.8786 17.9237 35.6046 18.0405 35.3437 18.1313C35.0958 18.2221 34.8544 18.2805 34.6195 18.3064C34.3977 18.3454 34.1628 18.3648 33.9149 18.3648C33.2886 18.3648 32.7145 18.274 32.1926 18.0924C31.6837 17.8978 31.2466 17.5669 30.8812 17.0998C30.5289 16.6328 30.2549 16.0165 30.0592 15.251C29.8635 14.4725 29.7656 13.4994 29.7656 12.3318C29.7656 11.1641 29.8896 10.1845 30.1375 9.39306C30.3985 8.60162 30.7377 7.95939 31.1552 7.46637C31.5858 6.97334 32.0817 6.62303 32.6427 6.41544C33.2038 6.19488 33.7975 6.0846 34.4238 6.0846C34.8544 6.0846 35.298 6.13001 35.7547 6.22083C36.2244 6.31165 36.7072 6.46734 37.203 6.6879V3.59354C37.203 3.17836 37.3531 2.88644 37.6532 2.71777C37.9533 2.53613 38.3382 2.44531 38.8079 2.44531C39.1863 2.44531 39.4473 2.52965 39.5908 2.69831C39.7474 2.86698 39.8257 3.12647 39.8257 3.47677V17.3139Z" fill="white"/>
<path d="M48.6966 7.15632C48.6966 7.46771 48.677 7.72719 48.6379 7.93478C48.6118 8.1294 48.5661 8.2786 48.5009 8.3824C48.4357 8.48619 48.3574 8.55755 48.266 8.59648C48.1877 8.6354 48.0964 8.65486 47.992 8.65486C47.9268 8.65486 47.8485 8.65486 47.7572 8.65486C47.6658 8.64189 47.5875 8.6354 47.5223 8.6354C47.1439 8.6354 46.7655 8.70676 46.3871 8.84948C46.0087 8.97922 45.5716 9.20627 45.0758 9.53063V17.3152C45.0758 18.0159 44.6387 18.3662 43.7645 18.3662C42.8902 18.3662 42.4531 18.0159 42.4531 17.3152V7.13686C42.4531 6.43625 42.8902 6.08594 43.7645 6.08594C44.5343 6.08594 44.9518 6.36489 45.0171 6.92278L45.0366 7.46771H45.2128C45.5259 7.18227 45.8 6.94873 46.0348 6.76709C46.2827 6.58545 46.5045 6.44273 46.7003 6.33894C46.909 6.23514 47.1048 6.17027 47.2874 6.14432C47.4832 6.1054 47.6789 6.08594 47.8746 6.08594C48.1486 6.08594 48.3508 6.17027 48.4813 6.33894C48.6249 6.49463 48.6966 6.76709 48.6966 7.15632Z" fill="white"/>
<path d="M60.0806 12.2163C60.0806 13.3321 59.9436 14.2792 59.6696 15.0577C59.4086 15.8362 59.037 16.4719 58.5542 16.9649C58.0845 17.458 57.5169 17.8148 56.8515 18.0353C56.1991 18.2559 55.4814 18.3662 54.6985 18.3662C53.9156 18.3662 53.198 18.2624 52.5456 18.0548C51.9062 17.8342 51.3517 17.4839 50.882 17.0039C50.4253 16.5108 50.0665 15.8751 49.8055 15.0966C49.5445 14.3182 49.4141 13.3646 49.4141 12.2358C49.4141 11.133 49.5445 10.1923 49.8055 9.41386C50.0665 8.6354 50.4318 7.99966 50.9015 7.50663C51.3713 7.0136 51.9323 6.65681 52.5847 6.43625C53.2502 6.20271 53.9809 6.08594 54.7768 6.08594C55.5466 6.08594 56.2578 6.19622 56.9102 6.41678C57.5626 6.62437 58.1236 6.96819 58.5934 7.44825C59.0631 7.9283 59.4282 8.56404 59.6892 9.35548C59.9501 10.1339 60.0806 11.0876 60.0806 12.2163ZM57.282 12.2358C57.282 11.3795 57.2233 10.6918 57.1059 10.1729C56.9885 9.64091 56.8188 9.23222 56.597 8.94678C56.3882 8.64837 56.1273 8.44727 55.8141 8.34348C55.501 8.23968 55.1552 8.18778 54.7768 8.18778C54.3593 8.18778 53.9874 8.23968 53.6612 8.34348C53.3481 8.44727 53.0806 8.64837 52.8587 8.94678C52.65 9.23222 52.4869 9.64091 52.3694 10.1729C52.2651 10.6918 52.2129 11.3795 52.2129 12.2358C52.2129 13.0921 52.2716 13.7862 52.389 14.3182C52.5065 14.8371 52.6696 15.2458 52.8783 15.5442C53.1001 15.8297 53.3611 16.0243 53.6612 16.1281C53.9744 16.2319 54.3201 16.2838 54.6985 16.2838C55.1161 16.2838 55.4879 16.2319 55.8141 16.1281C56.1403 16.0243 56.4078 15.8297 56.6166 15.5442C56.8384 15.2458 57.0015 14.8371 57.1059 14.3182C57.2233 13.7862 57.282 13.0921 57.282 12.2358Z" fill="white"/>
<path d="M72.1616 12.119C72.1616 13.2478 72.0377 14.2079 71.7897 14.9993C71.5549 15.7908 71.2287 16.4395 70.8111 16.9455C70.4066 17.4385 69.9239 17.8018 69.3628 18.0353C68.8017 18.2559 68.2015 18.3662 67.5622 18.3662C67.0533 18.3662 66.5705 18.3143 66.1138 18.2105C65.6702 18.1067 65.207 17.951 64.7242 17.7434V20.4291C64.7242 21.1297 64.2871 21.48 63.4129 21.48C62.5387 21.48 62.1016 21.1297 62.1016 20.4291V7.13686C62.1016 6.43625 62.5387 6.08594 63.4129 6.08594C64.1827 6.08594 64.6003 6.36489 64.6655 6.92278L64.6851 7.25363H64.8221C65.4745 6.8125 66.0486 6.5076 66.5444 6.33894C67.0403 6.17027 67.5426 6.08594 68.0515 6.08594C68.7039 6.08594 69.2845 6.18973 69.7934 6.39732C70.3023 6.60491 70.7328 6.94873 71.0851 7.42878C71.4374 7.89586 71.7049 8.51863 71.8876 9.29709C72.0703 10.0626 72.1616 11.0032 72.1616 12.119ZM69.3628 12.0606C69.3628 11.2951 69.3171 10.6724 69.2258 10.1923C69.1345 9.6993 68.9975 9.31655 68.8148 9.04409C68.6321 8.75866 68.4038 8.56404 68.1298 8.46025C67.8688 8.35645 67.5687 8.30455 67.2294 8.30455C66.8902 8.30455 66.5249 8.36942 66.1334 8.49917C65.755 8.62891 65.2853 8.86245 64.7242 9.19978V15.8362C65.1287 15.9789 65.5136 16.0827 65.879 16.1476C66.2443 16.2124 66.5575 16.2449 66.8184 16.2449C67.1838 16.2449 67.523 16.193 67.8362 16.0892C68.1493 15.9854 68.4168 15.7843 68.6386 15.4859C68.8605 15.1875 69.0366 14.7658 69.1671 14.2209C69.2976 13.663 69.3628 12.9429 69.3628 12.0606Z" fill="white"/>
<path d="M81.3106 7.40889C81.3106 7.79812 81.2324 8.08355 81.0758 8.26519C80.9192 8.43386 80.6909 8.51819 80.3908 8.51819H77.9051V15.174C77.9051 15.4206 77.9508 15.6022 78.0421 15.719C78.1465 15.8357 78.3226 15.8941 78.5706 15.8941C78.7924 15.8941 79.0077 15.8682 79.2164 15.8163C79.4382 15.7644 79.6405 15.7125 79.8232 15.6606C80.0189 15.5957 80.195 15.5373 80.3516 15.4854C80.5082 15.4335 80.6452 15.4076 80.7626 15.4076C80.9844 15.4076 81.1606 15.5049 81.2911 15.6995C81.4346 15.8811 81.5064 16.1666 81.5064 16.5558C81.5064 16.958 81.4281 17.2435 81.2715 17.4121C81.128 17.5678 80.9257 17.6976 80.6648 17.8013C80.2342 17.983 79.7775 18.1192 79.2947 18.21C78.825 18.3138 78.3814 18.3657 77.9638 18.3657C76.9983 18.3657 76.3132 18.1192 75.9087 17.6262C75.5043 17.1202 75.302 16.4066 75.302 15.4854V8.51819H74.6561C74.3821 8.51819 74.1668 8.42737 74.0103 8.24573C73.8537 8.06409 73.7754 7.77866 73.7754 7.38943C73.7754 7.00019 73.8537 6.72125 74.0103 6.55258C74.1668 6.37094 74.3821 6.28012 74.6561 6.28012H75.302V4.39237C75.302 3.97719 75.4521 3.68527 75.7522 3.5166C76.0523 3.33496 76.4307 3.24414 76.8874 3.24414C77.2657 3.24414 77.5267 3.33496 77.6702 3.5166C77.8268 3.68527 77.9051 3.93827 77.9051 4.2756V6.28012H80.3908C81.004 6.28012 81.3106 6.65637 81.3106 7.40889Z" fill="white"/>
<path d="M92.8479 17.3152C92.8479 18.0159 92.4108 18.3662 91.5366 18.3662C91.0799 18.3662 90.7602 18.2883 90.5775 18.1326C90.3949 17.9769 90.2905 17.7693 90.2644 17.5099V17.1401H90.0882C89.6446 17.3736 89.2466 17.5682 88.8943 17.7239C88.542 17.8796 88.2158 18.0094 87.9157 18.1132C87.6156 18.204 87.322 18.2689 87.035 18.3078C86.761 18.3467 86.4804 18.3662 86.1934 18.3662C85.1756 18.3662 84.4515 18.1326 84.0209 17.6656C83.5903 17.1855 83.375 16.4589 83.375 15.4859V7.13686C83.375 6.43625 83.8121 6.08594 84.6863 6.08594C85.5605 6.08594 85.9977 6.43625 85.9977 7.13686V14.8436C85.9977 15.2329 86.0629 15.5183 86.1934 15.6999C86.3369 15.8816 86.6696 15.9724 87.1916 15.9724C87.6482 15.9724 88.1245 15.914 88.6203 15.7972C89.1161 15.6805 89.6511 15.4794 90.2252 15.1939V7.13686C90.2252 6.43625 90.6623 6.08594 91.5366 6.08594C92.4108 6.08594 92.8479 6.43625 92.8479 7.13686V17.3152Z" fill="white"/>
<path d="M104.45 17.3152C104.45 18.0159 104.013 18.3662 103.138 18.3662C102.264 18.3662 101.827 18.0159 101.827 17.3152V9.62794C101.827 9.22573 101.755 8.93381 101.612 8.75217C101.481 8.57053 101.155 8.47971 100.633 8.47971C100.176 8.47971 99.6806 8.54458 99.1456 8.67432C98.6237 8.79109 98.0757 8.99219 97.5016 9.27763V17.3152C97.5016 18.0159 97.0645 18.3662 96.1902 18.3662C95.316 18.3662 94.8789 18.0159 94.8789 17.3152V7.13686C94.8789 6.43625 95.316 6.08594 96.1902 6.08594C96.9601 6.08594 97.3776 6.36489 97.4428 6.92278L97.4624 7.35094H97.6386C98.0822 7.10442 98.4867 6.90332 98.852 6.74763C99.2174 6.57896 99.5566 6.44922 99.8698 6.3584C100.183 6.2546 100.477 6.18325 100.751 6.14432C101.038 6.1054 101.331 6.08594 101.631 6.08594C102.649 6.08594 103.373 6.32596 103.804 6.80601C104.234 7.27309 104.45 7.99966 104.45 8.98571V17.3152Z" fill="white"/>
<path d="M116 11.0876C116 11.4249 115.981 11.7038 115.942 11.9244C115.902 12.132 115.831 12.3007 115.726 12.4304C115.635 12.5472 115.511 12.6315 115.354 12.6834C115.198 12.7223 115.002 12.7418 114.767 12.7418L109.228 12.878C109.228 13.4878 109.274 13.9938 109.365 14.396C109.457 14.7982 109.6 15.1291 109.796 15.3886C110.005 15.6351 110.266 15.8102 110.579 15.914C110.905 16.0178 111.29 16.0697 111.734 16.0697C112.06 16.0697 112.386 16.0438 112.712 15.9919C113.038 15.927 113.339 15.8621 113.613 15.7972C113.9 15.7194 114.154 15.6545 114.376 15.6026C114.611 15.5378 114.787 15.5053 114.904 15.5053C115.1 15.5053 115.27 15.5961 115.413 15.7778C115.57 15.9465 115.648 16.2449 115.648 16.673C115.648 17.0882 115.563 17.3736 115.394 17.5293C115.237 17.685 115.028 17.8018 114.767 17.8796C114.258 18.0353 113.737 18.1521 113.202 18.2299C112.68 18.3208 112.19 18.3662 111.734 18.3662C110.872 18.3662 110.109 18.2494 109.444 18.0159C108.791 17.7823 108.243 17.4255 107.8 16.9455C107.369 16.4525 107.036 15.8297 106.801 15.0772C106.58 14.3117 106.469 13.397 106.469 12.3331C106.469 11.2303 106.586 10.2896 106.821 9.51117C107.069 8.71973 107.408 8.07101 107.839 7.56501C108.282 7.05901 108.817 6.68925 109.444 6.45571C110.07 6.20919 110.768 6.08594 111.538 6.08594C112.999 6.08594 114.108 6.48166 114.865 7.27309C115.622 8.06453 116 9.33601 116 11.0876ZM113.417 10.3869C113.417 9.94581 113.365 9.57604 113.26 9.27763C113.169 8.96624 113.038 8.71973 112.869 8.53809C112.699 8.35645 112.497 8.22671 112.262 8.14886C112.04 8.07101 111.792 8.03209 111.518 8.03209C111.166 8.03209 110.853 8.08399 110.579 8.18778C110.305 8.29158 110.07 8.46673 109.874 8.71324C109.692 8.95976 109.542 9.2906 109.424 9.70578C109.32 10.108 109.261 10.6075 109.248 11.2043L113.397 11.1265C113.41 10.9838 113.417 10.8475 113.417 10.7178V10.3869Z" fill="white"/>
<path d="M14.2344 1.17949C14.2344 0.528074 14.7654 0 15.4206 0C16.0757 0 16.6067 0.528075 16.6067 1.17949V21.8205C16.6067 22.4719 16.0757 23 15.4206 23C14.7654 23 14.2344 22.4719 14.2344 21.8205V1.17949Z" fill="#15B6FB"/>
<path d="M9.49023 5.30839C9.49023 4.65698 10.0213 4.12891 10.6764 4.12891C11.3316 4.12891 11.8626 4.65698 11.8626 5.30839V17.3244C11.8626 17.9759 11.3316 18.5039 10.6764 18.5039C10.0213 18.5039 9.49023 17.9759 9.49023 17.3244V5.30839Z" fill="white"/>
<path d="M18.9805 6.48808C18.9805 5.83667 19.5115 5.30859 20.1667 5.30859C20.8218 5.30859 21.3528 5.83667 21.3528 6.48808V15.6291C21.3528 16.2805 20.8218 16.8086 20.1667 16.8086C19.5115 16.8086 18.9805 16.2805 18.9805 15.6291V6.48808Z" fill="white"/>
<path d="M4.74414 9.80449C4.74414 9.15306 5.27521 8.625 5.93033 8.625C6.58546 8.625 7.11651 9.15306 7.11651 9.80449V13.1955C7.11651 13.8469 6.58546 14.375 5.93033 14.375C5.27521 14.375 4.74414 13.8469 4.74414 13.1955V9.80449Z" fill="white"/>
<path d="M0 8.36699C0 7.71556 0.531074 7.1875 1.18619 7.1875C1.8413 7.1875 2.37237 7.71556 2.37237 8.36699V14.633C2.37237 15.2844 1.8413 15.8125 1.18619 15.8125C0.531074 15.8125 0 15.2844 0 14.633V8.36699Z" fill="white"/>
</svg>
