<svg width="107" height="21" viewBox="0 0 107 21" fill="none" xmlns="http://www.w3.org/2000/svg">
<rect width="107" height="21" fill="black" fill-opacity="0"/>
<path d="M34.3174 7.86722C33.9804 7.73691 33.6374 7.64807 33.2884 7.60068C32.9514 7.54145 32.6625 7.51184 32.4218 7.51184C32.0968 7.51184 31.7899 7.55922 31.501 7.65399C31.2122 7.73691 30.9594 7.91461 30.7428 8.18707C30.5262 8.44768 30.3516 8.82676 30.2192 9.3243C30.0989 9.82184 30.0387 10.4852 30.0387 11.3145C30.0387 11.9778 30.0808 12.5287 30.1651 12.967C30.2493 13.4053 30.3697 13.7548 30.5262 14.0154C30.6947 14.276 30.9053 14.4655 31.158 14.584C31.4108 14.6906 31.7057 14.7439 32.0427 14.7439C32.3556 14.7439 32.6745 14.6906 32.9995 14.584C33.3365 14.4655 33.7758 14.2464 34.3174 13.9265V7.86722ZM36.7366 15.8101C36.7366 16.4498 36.3334 16.7696 35.527 16.7696C35.19 16.7696 34.9192 16.7104 34.7146 16.5919C34.51 16.4735 34.4017 16.2958 34.3896 16.0588L34.3716 15.7035H34.2994C33.9503 15.9167 33.6374 16.0944 33.3606 16.2365C33.0958 16.3668 32.843 16.4735 32.6023 16.5564C32.3736 16.6393 32.151 16.6926 31.9343 16.7163C31.7297 16.7518 31.5131 16.7696 31.2844 16.7696C30.7067 16.7696 30.1771 16.6867 29.6957 16.5208C29.2263 16.3431 28.8231 16.0411 28.4861 15.6146C28.1611 15.1881 27.9084 14.6255 27.7278 13.9265C27.5473 13.2158 27.457 12.3273 27.457 11.2611C27.457 10.195 27.5714 9.30061 27.8001 8.57799C28.0408 7.85537 28.3537 7.26899 28.7388 6.81884C29.136 6.36868 29.5934 6.04884 30.1109 5.8593C30.6285 5.65791 31.1761 5.55722 31.7538 5.55722C32.151 5.55722 32.5602 5.59868 32.9814 5.68161C33.4147 5.76453 33.8601 5.90668 34.3174 6.10807V3.28276C34.3174 2.90368 34.4558 2.63714 34.7327 2.48314C35.0095 2.3173 35.3645 2.23438 35.7978 2.23438C36.1469 2.23438 36.3876 2.31138 36.52 2.46538C36.6644 2.61937 36.7366 2.8563 36.7366 3.17614V15.8101Z" fill="#202425"/>
<path d="M44.9183 6.53453C44.9183 6.81884 44.9002 7.05576 44.8641 7.2453C44.8401 7.42299 44.7979 7.55922 44.7378 7.65399C44.6776 7.74876 44.6054 7.81391 44.5211 7.84945C44.4489 7.88499 44.3647 7.90276 44.2684 7.90276C44.2082 7.90276 44.136 7.90276 44.0517 7.90276C43.9675 7.89091 43.8953 7.88499 43.8351 7.88499C43.486 7.88499 43.137 7.95014 42.788 8.08045C42.4389 8.19891 42.0357 8.40622 41.5784 8.70237V15.8101C41.5784 16.4498 41.1752 16.7696 40.3688 16.7696C39.5624 16.7696 39.1592 16.4498 39.1592 15.8101V6.51676C39.1592 5.87707 39.5624 5.55722 40.3688 5.55722C41.0789 5.55722 41.464 5.81191 41.5242 6.3213L41.5423 6.81884H41.7047C41.9936 6.55822 42.2464 6.34499 42.463 6.17914C42.6917 6.0133 42.8963 5.88299 43.0768 5.78822C43.2694 5.69345 43.4499 5.63422 43.6184 5.61053C43.799 5.57499 43.9795 5.55722 44.16 5.55722C44.4128 5.55722 44.5993 5.63422 44.7197 5.78822C44.8521 5.93038 44.9183 6.17914 44.9183 6.53453Z" fill="#202425"/>
<path d="M55.4204 11.1545C55.4204 12.1733 55.2941 13.0381 55.0413 13.7488C54.8006 14.4596 54.4576 15.0401 54.0123 15.4902C53.579 15.9404 53.0554 16.2661 52.4416 16.4675C51.8398 16.6689 51.1778 16.7696 50.4557 16.7696C49.7335 16.7696 49.0716 16.6748 48.4698 16.4853C47.88 16.2839 47.3685 15.9641 46.9352 15.5258C46.514 15.0756 46.183 14.4951 45.9423 13.7844C45.7016 13.0736 45.5812 12.2029 45.5812 11.1723C45.5812 10.1654 45.7016 9.30653 45.9423 8.59576C46.183 7.88499 46.52 7.30453 46.9533 6.85437C47.3866 6.40422 47.9041 6.07845 48.5059 5.87707C49.1197 5.66384 49.7937 5.55722 50.5279 5.55722C51.238 5.55722 51.894 5.65791 52.4958 5.8593C53.0975 6.04884 53.6151 6.36276 54.0484 6.80107C54.4817 7.23938 54.8187 7.81984 55.0594 8.54245C55.3001 9.25322 55.4204 10.1239 55.4204 11.1545ZM52.8388 11.1723C52.8388 10.3905 52.7846 9.76261 52.6763 9.28876C52.568 8.80307 52.4115 8.42991 52.2069 8.1693C52.0143 7.89684 51.7736 7.71322 51.4848 7.61845C51.1959 7.52368 50.8769 7.4763 50.5279 7.4763C50.1428 7.4763 49.7997 7.52368 49.4988 7.61845C49.21 7.71322 48.9633 7.89684 48.7586 8.1693C48.5661 8.42991 48.4156 8.80307 48.3073 9.28876C48.211 9.76261 48.1629 10.3905 48.1629 11.1723C48.1629 11.9541 48.217 12.5879 48.3254 13.0736C48.4337 13.5475 48.5841 13.9206 48.7767 14.1931C48.9813 14.4537 49.222 14.6314 49.4988 14.7261C49.7877 14.8209 50.1067 14.8683 50.4557 14.8683C50.8408 14.8683 51.1839 14.8209 51.4848 14.7261C51.7856 14.6314 52.0324 14.4537 52.225 14.1931C52.4296 13.9206 52.58 13.5475 52.6763 13.0736C52.7846 12.5879 52.8388 11.9541 52.8388 11.1723Z" fill="#202425"/>
<path d="M66.5629 11.0657C66.5629 12.0963 66.4486 12.9729 66.2199 13.6955C66.0033 14.4181 65.7024 15.0105 65.3172 15.4725C64.9441 15.9226 64.4988 16.2543 63.9813 16.4675C63.4637 16.6689 62.9101 16.7696 62.3203 16.7696C61.8509 16.7696 61.4056 16.7222 60.9844 16.6275C60.5751 16.5327 60.1479 16.3905 59.7025 16.201V18.6531C59.7025 19.2928 59.2994 19.6127 58.493 19.6127C57.6866 19.6127 57.2834 19.2928 57.2834 18.6531V6.51676C57.2834 5.87707 57.6866 5.55722 58.493 5.55722C59.2031 5.55722 59.5882 5.81191 59.6484 6.3213L59.6664 6.62337H59.7928C60.3946 6.22061 60.9242 5.94222 61.3815 5.78822C61.8389 5.63422 62.3023 5.55722 62.7717 5.55722C63.3735 5.55722 63.909 5.65199 64.3784 5.84153C64.8478 6.03107 65.245 6.34499 65.57 6.7833C65.895 7.20976 66.1417 7.77837 66.3102 8.48914C66.4787 9.18807 66.5629 10.0469 66.5629 11.0657ZM63.9813 11.0124C63.9813 10.3135 63.9391 9.74484 63.8549 9.30653C63.7706 8.85638 63.6443 8.50691 63.4758 8.25814C63.3073 7.99753 63.0966 7.81984 62.8439 7.72507C62.6032 7.6303 62.3263 7.58291 62.0134 7.58291C61.7005 7.58291 61.3635 7.64214 61.0024 7.76061C60.6534 7.87907 60.2201 8.0923 59.7025 8.4003V14.4596C60.0757 14.5899 60.4307 14.6847 60.7677 14.7439C61.1047 14.8031 61.3936 14.8328 61.6343 14.8328C61.9713 14.8328 62.2842 14.7854 62.5731 14.6906C62.8619 14.5958 63.1087 14.4122 63.3133 14.1398C63.5179 13.8673 63.6804 13.4823 63.8007 12.9848C63.9211 12.4754 63.9813 11.8179 63.9813 11.0124Z" fill="#202425"/>
<path d="M75.0028 6.76553C75.0028 7.12091 74.9306 7.38153 74.7862 7.54738C74.6418 7.70138 74.4311 7.77838 74.1543 7.77838H71.8615V13.8555C71.8615 14.0805 71.9036 14.2464 71.9879 14.353C72.0842 14.4596 72.2467 14.5129 72.4753 14.5129C72.6799 14.5129 72.8785 14.4892 73.0711 14.4418C73.2757 14.3945 73.4623 14.3471 73.6308 14.2997C73.8113 14.2405 73.9738 14.1871 74.1182 14.1398C74.2626 14.0924 74.389 14.0687 74.4973 14.0687C74.702 14.0687 74.8644 14.1575 74.9848 14.3352C75.1172 14.5011 75.1834 14.7617 75.1834 15.1171C75.1834 15.4843 75.1112 15.7449 74.9667 15.8989C74.8343 16.0411 74.6478 16.1595 74.4071 16.2543C74.0099 16.4201 73.5886 16.5445 73.1433 16.6275C72.71 16.7222 72.3008 16.7696 71.9157 16.7696C71.025 16.7696 70.3931 16.5445 70.02 16.0944C69.6469 15.6324 69.4604 14.9808 69.4604 14.1398V7.77838H68.8646C68.6119 7.77838 68.4133 7.69545 68.2688 7.52961C68.1244 7.36376 68.0522 7.10314 68.0522 6.74776C68.0522 6.39237 68.1244 6.13768 68.2688 5.98368C68.4133 5.81784 68.6119 5.73491 68.8646 5.73491H69.4604V4.0113C69.4604 3.63222 69.5988 3.36568 69.8756 3.21168C70.1524 3.04584 70.5015 2.96291 70.9227 2.96291C71.2718 2.96291 71.5125 3.04584 71.6449 3.21168C71.7893 3.36568 71.8615 3.59668 71.8615 3.90468V5.73491H74.1543C74.72 5.73491 75.0028 6.07845 75.0028 6.76553Z" fill="#202425"/>
<path d="M85.6446 15.8101C85.6446 16.4498 85.2414 16.7696 84.435 16.7696C84.0138 16.7696 83.7189 16.6985 83.5504 16.5564C83.3819 16.4142 83.2856 16.2247 83.2615 15.9878V15.6501H83.0991C82.6898 15.8634 82.3228 16.0411 81.9978 16.1832C81.6728 16.3254 81.3719 16.4438 81.0951 16.5386C80.8183 16.6215 80.5475 16.6808 80.2827 16.7163C80.0299 16.7518 79.7712 16.7696 79.5064 16.7696C78.5676 16.7696 77.8996 16.5564 77.5024 16.1299C77.1053 15.6916 76.9067 15.0282 76.9067 14.1398V6.51676C76.9067 5.87707 77.3099 5.55722 78.1163 5.55722C78.9226 5.55722 79.3259 5.87707 79.3259 6.51676V13.5534C79.3259 13.9088 79.386 14.1694 79.5064 14.3352C79.6388 14.5011 79.9457 14.584 80.4271 14.584C80.8484 14.584 81.2877 14.5307 81.745 14.4241C82.2024 14.3175 82.6959 14.1338 83.2254 13.8732V6.51676C83.2254 5.87707 83.6286 5.55722 84.435 5.55722C85.2414 5.55722 85.6446 5.87707 85.6446 6.51676V15.8101Z" fill="#202425"/>
<path d="M96.3479 15.8101C96.3479 16.4498 95.9447 16.7696 95.1383 16.7696C94.3319 16.7696 93.9287 16.4498 93.9287 15.8101V8.79122C93.9287 8.42399 93.8625 8.15745 93.7302 7.99161C93.6098 7.82576 93.3089 7.74284 92.8275 7.74284C92.4062 7.74284 91.9489 7.80207 91.4554 7.92053C90.974 8.02714 90.4685 8.21076 89.9389 8.47138V15.8101C89.9389 16.4498 89.5357 16.7696 88.7293 16.7696C87.9229 16.7696 87.5197 16.4498 87.5197 15.8101V6.51676C87.5197 5.87707 87.9229 5.55722 88.7293 5.55722C89.4394 5.55722 89.8246 5.81191 89.8847 6.3213L89.9028 6.71222H90.0653C90.4745 6.48714 90.8476 6.30353 91.1846 6.16138C91.5216 6.00738 91.8345 5.88891 92.1234 5.80599C92.4122 5.71122 92.6831 5.64607 92.9358 5.61053C93.2006 5.57499 93.4714 5.55722 93.7482 5.55722C94.687 5.55722 95.355 5.77637 95.7522 6.21468C96.1493 6.64114 96.3479 7.30453 96.3479 8.20484V15.8101Z" fill="#202425"/>
<path d="M107 10.1239C107 10.4319 106.982 10.6866 106.946 10.888C106.91 11.0775 106.844 11.2315 106.748 11.35C106.663 11.4566 106.549 11.5336 106.405 11.581C106.26 11.6165 106.08 11.6343 105.863 11.6343L100.754 11.7587C100.754 12.3155 100.796 12.7775 100.88 13.1447C100.965 13.5119 101.097 13.814 101.277 14.0509C101.47 14.276 101.711 14.4359 102 14.5307C102.3 14.6255 102.656 14.6728 103.065 14.6728C103.366 14.6728 103.667 14.6491 103.967 14.6018C104.268 14.5425 104.545 14.4833 104.798 14.4241C105.063 14.353 105.297 14.2938 105.502 14.2464C105.719 14.1871 105.881 14.1575 105.989 14.1575C106.17 14.1575 106.326 14.2405 106.459 14.4063C106.603 14.5603 106.675 14.8328 106.675 15.2237C106.675 15.6028 106.597 15.8634 106.441 16.0055C106.296 16.1477 106.104 16.2543 105.863 16.3254C105.394 16.4675 104.912 16.5741 104.419 16.6452C103.937 16.7281 103.486 16.7696 103.065 16.7696C102.27 16.7696 101.566 16.663 100.952 16.4498C100.351 16.2365 99.8452 15.9108 99.436 15.4725C99.0388 15.0223 98.7319 14.4537 98.5152 13.7666C98.3106 13.0677 98.2083 12.2325 98.2083 11.2611C98.2083 10.2542 98.3166 9.39538 98.5333 8.68461C98.762 7.96199 99.0749 7.36968 99.4721 6.90768C99.8813 6.44568 100.375 6.10807 100.952 5.89484C101.53 5.66976 102.174 5.55722 102.884 5.55722C104.232 5.55722 105.255 5.91853 105.953 6.64114C106.651 7.36376 107 8.52468 107 10.1239ZM104.617 9.48422C104.617 9.08145 104.569 8.74384 104.473 8.47138C104.389 8.18707 104.268 7.96199 104.112 7.79614C103.955 7.6303 103.769 7.51184 103.552 7.44076C103.348 7.36968 103.119 7.33414 102.866 7.33414C102.541 7.33414 102.252 7.38153 102 7.4763C101.747 7.57107 101.53 7.73099 101.35 7.95607C101.181 8.18114 101.043 8.48322 100.934 8.8623C100.838 9.22953 100.784 9.68561 100.772 10.2305L104.599 10.1595C104.611 10.0291 104.617 9.90476 104.617 9.7863V9.48422Z" fill="#202425"/>
<rect width="19.6949" height="21" fill="black" fill-opacity="0"/>
<path d="M13.1309 1.07692C13.1309 0.482155 13.6207 0 14.225 0C14.8293 0 15.3192 0.482155 15.3192 1.07692V19.9231C15.3192 20.5178 14.8293 21 14.225 21C13.6207 21 13.1309 20.5178 13.1309 19.9231V1.07692Z" fill="#15B6FB"/>
<path d="M8.75391 4.84645C8.75391 4.25169 9.24378 3.76953 9.84807 3.76953C10.4524 3.76953 10.9422 4.25169 10.9422 4.84645V15.8176C10.9422 16.4124 10.4524 16.8945 9.84807 16.8945C9.24378 16.8945 8.75391 16.4124 8.75391 15.8176V4.84645Z" fill="#202425"/>
<path d="M17.5059 5.92263C17.5059 5.32786 17.9957 4.8457 18.6 4.8457C19.2043 4.8457 19.6942 5.32786 19.6942 5.92263V14.2688C19.6942 14.8635 19.2043 15.3457 18.6 15.3457C17.9957 15.3457 17.5059 14.8635 17.5059 14.2688V5.92263Z" fill="#202425"/>
<path d="M4.37695 8.95192C4.37695 8.35715 4.86683 7.875 5.47111 7.875C6.0754 7.875 6.56527 8.35715 6.56527 8.95192V12.0481C6.56527 12.6428 6.0754 13.125 5.47111 13.125C4.86683 13.125 4.37695 12.6428 4.37695 12.0481V8.95192Z" fill="#202425"/>
<path d="M0 7.63942C0 7.04465 0.489873 6.5625 1.09416 6.5625C1.69845 6.5625 2.18832 7.04465 2.18832 7.63942V13.3606C2.18832 13.9553 1.69845 14.4375 1.09416 14.4375C0.489873 14.4375 0 13.9553 0 13.3606V7.63942Z" fill="#202425"/>
</svg>
