<svg width="110" height="24" viewBox="0 0 110 24" fill="none" xmlns="http://www.w3.org/2000/svg">
<rect width="110" height="24" fill="black" fill-opacity="0"/>
<path d="M39.646 11.8104C39.646 13.0104 39.52 14.0424 39.268 14.9064C39.028 15.7584 38.662 16.4664 38.17 17.0304C37.69 17.5824 37.09 17.9904 36.37 18.2544C35.662 18.5184 34.84 18.6504 33.904 18.6504H30.538C30.142 18.6504 29.848 18.5484 29.656 18.3444C29.464 18.1284 29.368 17.8404 29.368 17.4804V6.62639C29.368 5.84639 29.758 5.45639 30.538 5.45639H33.886C34.75 5.45639 35.536 5.56439 36.244 5.78039C36.952 5.98439 37.558 6.33239 38.062 6.82439C38.566 7.31639 38.956 7.97039 39.232 8.78639C39.508 9.59039 39.646 10.5984 39.646 11.8104ZM37.054 11.8464C37.054 10.9344 36.982 10.1964 36.838 9.63239C36.694 9.05639 36.484 8.61239 36.208 8.30039C35.932 7.98839 35.596 7.77839 35.2 7.67039C34.804 7.55039 34.348 7.49039 33.832 7.49039H31.87V16.5984H33.796C34.348 16.5984 34.828 16.5324 35.236 16.4004C35.644 16.2684 35.98 16.0284 36.244 15.6804C36.52 15.3204 36.724 14.8344 36.856 14.2224C36.988 13.6104 37.054 12.8184 37.054 11.8464ZM47.3406 8.46239C47.3406 8.75039 47.3226 8.99039 47.2866 9.18239C47.2626 9.36239 47.2206 9.50039 47.1606 9.59639C47.1006 9.69239 47.0286 9.75839 46.9446 9.79439C46.8726 9.83039 46.7886 9.84839 46.6926 9.84839C46.6326 9.84839 46.5606 9.84839 46.4766 9.84839C46.3926 9.83639 46.3206 9.83039 46.2606 9.83039C45.9126 9.83039 45.5646 9.89639 45.2166 10.0284C44.8686 10.1484 44.4666 10.3584 44.0106 10.6584V17.8584C44.0106 18.5064 43.6086 18.8304 42.8046 18.8304C42.0006 18.8304 41.5986 18.5064 41.5986 17.8584V8.44439C41.5986 7.79639 42.0006 7.47239 42.8046 7.47239C43.5126 7.47239 43.8966 7.73039 43.9566 8.24639L43.9746 8.75039H44.1366C44.4246 8.48639 44.6766 8.27039 44.8926 8.10239C45.1206 7.93439 45.3246 7.80239 45.5046 7.70639C45.6966 7.61039 45.8766 7.55039 46.0446 7.52639C46.2246 7.49039 46.4046 7.47239 46.5846 7.47239C46.8366 7.47239 47.0226 7.55039 47.1426 7.70639C47.2746 7.85039 47.3406 8.10239 47.3406 8.46239ZM57.8115 13.1424C57.8115 14.1744 57.6855 15.0504 57.4335 15.7704C57.1935 16.4904 56.8515 17.0784 56.4075 17.5344C55.9755 17.9904 55.4535 18.3204 54.8415 18.5244C54.2415 18.7284 53.5815 18.8304 52.8615 18.8304C52.1415 18.8304 51.4815 18.7344 50.8815 18.5424C50.2935 18.3384 49.7835 18.0144 49.3515 17.5704C48.9315 17.1144 48.6015 16.5264 48.3615 15.8064C48.1215 15.0864 48.0015 14.2044 48.0015 13.1604C48.0015 12.1404 48.1215 11.2704 48.3615 10.5504C48.6015 9.83039 48.9375 9.24239 49.3695 8.78639C49.8015 8.33039 50.3175 8.00039 50.9175 7.79639C51.5295 7.58039 52.2015 7.47239 52.9335 7.47239C53.6415 7.47239 54.2955 7.57439 54.8955 7.77839C55.4955 7.97039 56.0115 8.28839 56.4435 8.73239C56.8755 9.17639 57.2115 9.76439 57.4515 10.4964C57.6915 11.2164 57.8115 12.0984 57.8115 13.1424ZM55.2375 13.1604C55.2375 12.3684 55.1835 11.7324 55.0755 11.2524C54.9675 10.7604 54.8115 10.3824 54.6075 10.1184C54.4155 9.84239 54.1755 9.65639 53.8875 9.56039C53.5995 9.46439 53.2815 9.41639 52.9335 9.41639C52.5495 9.41639 52.2075 9.46439 51.9075 9.56039C51.6195 9.65639 51.3735 9.84239 51.1695 10.1184C50.9775 10.3824 50.8275 10.7604 50.7195 11.2524C50.6235 11.7324 50.5755 12.3684 50.5755 13.1604C50.5755 13.9524 50.6295 14.5944 50.7375 15.0864C50.8455 15.5664 50.9955 15.9444 51.1875 16.2204C51.3915 16.4844 51.6315 16.6644 51.9075 16.7604C52.1955 16.8564 52.5135 16.9044 52.8615 16.9044C53.2455 16.9044 53.5875 16.8564 53.8875 16.7604C54.1875 16.6644 54.4335 16.4844 54.6255 16.2204C54.8295 15.9444 54.9795 15.5664 55.0755 15.0864C55.1835 14.5944 55.2375 13.9524 55.2375 13.1604ZM68.9209 13.0524C68.9209 14.0964 68.8069 14.9844 68.5789 15.7164C68.3629 16.4484 68.0629 17.0484 67.6789 17.5164C67.3069 17.9724 66.8629 18.3084 66.3469 18.5244C65.8309 18.7284 65.2789 18.8304 64.6909 18.8304C64.2229 18.8304 63.7789 18.7824 63.3589 18.6864C62.9509 18.5904 62.5249 18.4464 62.0809 18.2544V20.7384C62.0809 21.3864 61.6789 21.7104 60.8749 21.7104C60.0709 21.7104 59.6689 21.3864 59.6689 20.7384V8.44439C59.6689 7.79639 60.0709 7.47239 60.8749 7.47239C61.5829 7.47239 61.9669 7.73039 62.0269 8.24639L62.0449 8.55239H62.1709C62.7709 8.14439 63.2989 7.86239 63.7549 7.70639C64.2109 7.55039 64.6729 7.47239 65.1409 7.47239C65.7409 7.47239 66.2749 7.56839 66.7429 7.76039C67.2109 7.95239 67.6069 8.27039 67.9309 8.71439C68.2549 9.14639 68.5009 9.72239 68.6689 10.4424C68.8369 11.1504 68.9209 12.0204 68.9209 13.0524ZM66.3469 12.9984C66.3469 12.2904 66.3049 11.7144 66.2209 11.2704C66.1369 10.8144 66.0109 10.4604 65.8429 10.2084C65.6749 9.94439 65.4649 9.76439 65.2129 9.66839C64.9729 9.57239 64.6969 9.52439 64.3849 9.52439C64.0729 9.52439 63.7369 9.58439 63.3769 9.70439C63.0289 9.82439 62.5969 10.0404 62.0809 10.3524V16.4904C62.4529 16.6224 62.8069 16.7184 63.1429 16.7784C63.4789 16.8384 63.7669 16.8684 64.0069 16.8684C64.3429 16.8684 64.6549 16.8204 64.9429 16.7244C65.2309 16.6284 65.4769 16.4424 65.6809 16.1664C65.8849 15.8904 66.0469 15.5004 66.1669 14.9964C66.2869 14.4804 66.3469 13.8144 66.3469 12.9984ZM76.7903 8.69639C76.7903 9.05639 76.7183 9.32039 76.5743 9.48839C76.4303 9.64439 76.2203 9.72239 75.9443 9.72239H73.6583V15.8784C73.6583 16.1064 73.7003 16.2744 73.7843 16.3824C73.8803 16.4904 74.0423 16.5444 74.2703 16.5444C74.4743 16.5444 74.6723 16.5204 74.8643 16.4724C75.0683 16.4244 75.2543 16.3764 75.4223 16.3284C75.6023 16.2684 75.7643 16.2144 75.9083 16.1664C76.0523 16.1184 76.1783 16.0944 76.2863 16.0944C76.4903 16.0944 76.6523 16.1844 76.7723 16.3644C76.9043 16.5324 76.9703 16.7964 76.9703 17.1564C76.9703 17.5284 76.8983 17.7924 76.7543 17.9484C76.6223 18.0924 76.4363 18.2124 76.1963 18.3084C75.8003 18.4764 75.3803 18.6024 74.9363 18.6864C74.5043 18.7824 74.0963 18.8304 73.7123 18.8304C72.8243 18.8304 72.1943 18.6024 71.8223 18.1464C71.4503 17.6784 71.2643 17.0184 71.2643 16.1664V9.72239H70.6703C70.4183 9.72239 70.2203 9.63839 70.0763 9.47039C69.9323 9.30239 69.8603 9.03839 69.8603 8.67839C69.8603 8.31839 69.9323 8.06039 70.0763 7.90439C70.2203 7.73639 70.4183 7.65239 70.6703 7.65239H71.2643V5.90639C71.2643 5.52239 71.4023 5.25239 71.6783 5.09639C71.9543 4.92839 72.3023 4.84439 72.7223 4.84439C73.0703 4.84439 73.3103 4.92839 73.4423 5.09639C73.5863 5.25239 73.6583 5.48639 73.6583 5.79839V7.65239H75.9443C76.5083 7.65239 76.7903 8.00039 76.7903 8.69639ZM87.4004 17.8584C87.4004 18.5064 86.9984 18.8304 86.1944 18.8304C85.7744 18.8304 85.4804 18.7584 85.3124 18.6144C85.1444 18.4704 85.0484 18.2784 85.0244 18.0384V17.6964H84.8624C84.4544 17.9124 84.0884 18.0924 83.7644 18.2364C83.4404 18.3804 83.1404 18.5004 82.8644 18.5964C82.5884 18.6804 82.3184 18.7404 82.0544 18.7764C81.8024 18.8124 81.5444 18.8304 81.2804 18.8304C80.3444 18.8304 79.6784 18.6144 79.2824 18.1824C78.8864 17.7384 78.6884 17.0664 78.6884 16.1664V8.44439C78.6884 7.79639 79.0904 7.47239 79.8944 7.47239C80.6984 7.47239 81.1004 7.79639 81.1004 8.44439V15.5724C81.1004 15.9324 81.1604 16.1964 81.2804 16.3644C81.4124 16.5324 81.7184 16.6164 82.1984 16.6164C82.6184 16.6164 83.0564 16.5624 83.5124 16.4544C83.9684 16.3464 84.4604 16.1604 84.9884 15.8964V8.44439C84.9884 7.79639 85.3904 7.47239 86.1944 7.47239C86.9984 7.47239 87.4004 7.79639 87.4004 8.44439V17.8584ZM98.6174 17.8584C98.6174 18.5064 98.2154 18.8304 97.4114 18.8304C96.6074 18.8304 96.2054 18.5064 96.2054 17.8584V10.7484C96.2054 10.3764 96.1394 10.1064 96.0074 9.93839C95.8874 9.77039 95.5874 9.68639 95.1074 9.68639C94.6874 9.68639 94.2314 9.74639 93.7394 9.86639C93.2594 9.97439 92.7554 10.1604 92.2274 10.4244V17.8584C92.2274 18.5064 91.8254 18.8304 91.0214 18.8304C90.2174 18.8304 89.8154 18.5064 89.8154 17.8584V8.44439C89.8154 7.79639 90.2174 7.47239 91.0214 7.47239C91.7294 7.47239 92.1134 7.73039 92.1734 8.24639L92.1914 8.64239H92.3534C92.7614 8.41439 93.1334 8.22839 93.4694 8.08439C93.8054 7.92839 94.1174 7.80839 94.4054 7.72439C94.6934 7.62839 94.9634 7.56239 95.2154 7.52639C95.4794 7.49039 95.7494 7.47239 96.0254 7.47239C96.9614 7.47239 97.6274 7.69439 98.0234 8.13839C98.4194 8.57039 98.6174 9.24239 98.6174 10.1544V17.8584ZM109.238 12.0984C109.238 12.4104 109.22 12.6684 109.184 12.8724C109.148 13.0644 109.082 13.2204 108.986 13.3404C108.902 13.4484 108.788 13.5264 108.644 13.5744C108.5 13.6104 108.32 13.6284 108.104 13.6284L103.01 13.7544C103.01 14.3184 103.052 14.7864 103.136 15.1584C103.22 15.5304 103.352 15.8364 103.532 16.0764C103.724 16.3044 103.964 16.4664 104.252 16.5624C104.552 16.6584 104.906 16.7064 105.314 16.7064C105.614 16.7064 105.914 16.6824 106.214 16.6344C106.514 16.5744 106.79 16.5144 107.042 16.4544C107.306 16.3824 107.54 16.3224 107.744 16.2744C107.96 16.2144 108.122 16.1844 108.23 16.1844C108.41 16.1844 108.566 16.2684 108.698 16.4364C108.842 16.5924 108.914 16.8684 108.914 17.2644C108.914 17.6484 108.836 17.9124 108.68 18.0564C108.536 18.2004 108.344 18.3084 108.104 18.3804C107.636 18.5244 107.156 18.6324 106.664 18.7044C106.184 18.7884 105.734 18.8304 105.314 18.8304C104.522 18.8304 103.82 18.7224 103.208 18.5064C102.608 18.2904 102.104 17.9604 101.696 17.5164C101.3 17.0604 100.994 16.4844 100.778 15.7884C100.574 15.0804 100.472 14.2344 100.472 13.2504C100.472 12.2304 100.58 11.3604 100.796 10.6404C101.024 9.90839 101.336 9.30839 101.732 8.84039C102.14 8.37239 102.632 8.03039 103.208 7.81439C103.784 7.58639 104.426 7.47239 105.134 7.47239C106.478 7.47239 107.498 7.83839 108.194 8.57039C108.89 9.30239 109.238 10.4784 109.238 12.0984ZM106.862 11.4504C106.862 11.0424 106.814 10.7004 106.718 10.4244C106.634 10.1364 106.514 9.90839 106.358 9.74039C106.202 9.57239 106.016 9.45239 105.8 9.38039C105.596 9.30839 105.368 9.27239 105.116 9.27239C104.792 9.27239 104.504 9.32039 104.252 9.41639C104 9.51239 103.784 9.67439 103.604 9.90239C103.436 10.1304 103.298 10.4364 103.19 10.8204C103.094 11.1924 103.04 11.6544 103.028 12.2064L106.844 12.1344C106.856 12.0024 106.862 11.8764 106.862 11.7564V11.4504Z" fill="#202425"/>
<rect width="24" height="24" fill="black" fill-opacity="0"/>
<rect x="19" y="8" width="2" height="7" rx="1" fill="#202425"/>
<rect x="15" y="2" width="2" height="20" rx="1" fill="#202425"/>
<rect x="11" y="6" width="2" height="12" rx="1" fill="#202425"/>
<rect x="7" y="9" width="2" height="6" rx="1" fill="#202425"/>
<rect x="3" y="7" width="2" height="10" rx="1" fill="#202425"/>
</svg>
