<svg width="196" height="39" viewBox="0 0 196 39" fill="none" xmlns="http://www.w3.org/2000/svg">
<rect width="195.584" height="39" fill="black" fill-opacity="0"/>
<path d="M62.7275 14.6094C62.1115 14.3674 61.4845 14.2024 60.8465 14.1144C60.2305 14.0044 59.7025 13.9494 59.2625 13.9494C58.6685 13.9494 58.1075 14.0374 57.5795 14.2134C57.0515 14.3674 56.5895 14.6974 56.1935 15.2034C55.7975 15.6874 55.4785 16.3914 55.2365 17.3154C55.0165 18.2394 54.9065 19.4714 54.9065 21.0114C54.9065 22.2434 54.9835 23.2664 55.1375 24.0804C55.2915 24.8944 55.5115 25.5434 55.7975 26.0274C56.1055 26.5114 56.4905 26.8634 56.9525 27.0834C57.4145 27.2814 57.9535 27.3804 58.5695 27.3804C59.1415 27.3804 59.7245 27.2814 60.3185 27.0834C60.9345 26.8634 61.7375 26.4564 62.7275 25.8624V14.6094ZM67.1495 29.3604C67.1495 30.5484 66.4125 31.1424 64.9385 31.1424C64.3225 31.1424 63.8275 31.0324 63.4535 30.8124C63.0795 30.5924 62.8815 30.2624 62.8595 29.8224L62.8265 29.1624H62.6945C62.0565 29.5584 61.4845 29.8884 60.9785 30.1524C60.4945 30.3944 60.0325 30.5924 59.5925 30.7464C59.1745 30.9004 58.7675 30.9994 58.3715 31.0434C57.9975 31.1094 57.6015 31.1424 57.1835 31.1424C56.1275 31.1424 55.1595 30.9884 54.2795 30.6804C53.4215 30.3504 52.6845 29.7894 52.0685 28.9974C51.4745 28.2054 51.0125 27.1604 50.6825 25.8624C50.3525 24.5424 50.1875 22.8924 50.1875 20.9124C50.1875 18.9324 50.3965 17.2714 50.8145 15.9294C51.2545 14.5874 51.8265 13.4984 52.5305 12.6624C53.2565 11.8264 54.0925 11.2324 55.0385 10.8804C55.9845 10.5064 56.9855 10.3194 58.0415 10.3194C58.7675 10.3194 59.5155 10.3964 60.2855 10.5504C61.0775 10.7044 61.8915 10.9684 62.7275 11.3424V6.09544C62.7275 5.39144 62.9805 4.89644 63.4865 4.61044C63.9925 4.30244 64.6415 4.14844 65.4335 4.14844C66.0715 4.14844 66.5115 4.29144 66.7535 4.57744C67.0175 4.86344 67.1495 5.30344 67.1495 5.89744V29.3604Z" fill="white"/>
<path d="M82.1047 12.1344C82.1047 12.6624 82.0717 13.1024 82.0057 13.4544C81.9617 13.7844 81.8847 14.0374 81.7747 14.2134C81.6647 14.3894 81.5327 14.5104 81.3787 14.5764C81.2467 14.6424 81.0927 14.6754 80.9167 14.6754C80.8067 14.6754 80.6747 14.6754 80.5207 14.6754C80.3667 14.6534 80.2347 14.6424 80.1247 14.6424C79.4867 14.6424 78.8487 14.7634 78.2107 15.0054C77.5727 15.2254 76.8357 15.6104 75.9997 16.1604V29.3604C75.9997 30.5484 75.2627 31.1424 73.7887 31.1424C72.3147 31.1424 71.5777 30.5484 71.5777 29.3604V12.1014C71.5777 10.9134 72.3147 10.3194 73.7887 10.3194C75.0867 10.3194 75.7907 10.7924 75.9007 11.7384L75.9337 12.6624H76.2307C76.7587 12.1784 77.2207 11.7824 77.6167 11.4744C78.0347 11.1664 78.4087 10.9244 78.7387 10.7484C79.0907 10.5724 79.4207 10.4624 79.7287 10.4184C80.0587 10.3524 80.3887 10.3194 80.7187 10.3194C81.1807 10.3194 81.5217 10.4624 81.7417 10.7484C81.9837 11.0124 82.1047 11.4744 82.1047 12.1344Z" fill="white"/>
<path d="M101.301 20.7144C101.301 22.6064 101.07 24.2124 100.608 25.5324C100.168 26.8524 99.5414 27.9304 98.7274 28.7664C97.9354 29.6024 96.9784 30.2074 95.8564 30.5814C94.7564 30.9554 93.5464 31.1424 92.2264 31.1424C90.9064 31.1424 89.6964 30.9664 88.5964 30.6144C87.5184 30.2404 86.5834 29.6464 85.7914 28.8324C85.0214 27.9964 84.4164 26.9184 83.9764 25.5984C83.5364 24.2784 83.3164 22.6614 83.3164 20.7474C83.3164 18.8774 83.5364 17.2824 83.9764 15.9624C84.4164 14.6424 85.0324 13.5644 85.8244 12.7284C86.6164 11.8924 87.5624 11.2874 88.6624 10.9134C89.7844 10.5174 91.0164 10.3194 92.3584 10.3194C93.6564 10.3194 94.8554 10.5064 95.9554 10.8804C97.0554 11.2324 98.0014 11.8154 98.7934 12.6294C99.5854 13.4434 100.201 14.5214 100.641 15.8634C101.081 17.1834 101.301 18.8004 101.301 20.7144ZM96.5824 20.7474C96.5824 19.2954 96.4834 18.1294 96.2854 17.2494C96.0874 16.3474 95.8014 15.6544 95.4274 15.1704C95.0754 14.6644 94.6354 14.3234 94.1074 14.1474C93.5794 13.9714 92.9964 13.8834 92.3584 13.8834C91.6544 13.8834 91.0274 13.9714 90.4774 14.1474C89.9494 14.3234 89.4984 14.6644 89.1244 15.1704C88.7724 15.6544 88.4974 16.3474 88.2994 17.2494C88.1234 18.1294 88.0354 19.2954 88.0354 20.7474C88.0354 22.1994 88.1344 23.3764 88.3324 24.2784C88.5304 25.1584 88.8054 25.8514 89.1574 26.3574C89.5314 26.8414 89.9714 27.1714 90.4774 27.3474C91.0054 27.5234 91.5884 27.6114 92.2264 27.6114C92.9304 27.6114 93.5574 27.5234 94.1074 27.3474C94.6574 27.1714 95.1084 26.8414 95.4604 26.3574C95.8344 25.8514 96.1094 25.1584 96.2854 24.2784C96.4834 23.3764 96.5824 22.1994 96.5824 20.7474Z" fill="white"/>
<path d="M121.669 20.5494C121.669 22.4634 121.46 24.0914 121.042 25.4334C120.646 26.7754 120.096 27.8754 119.392 28.7334C118.71 29.5694 117.896 30.1854 116.95 30.5814C116.004 30.9554 114.992 31.1424 113.914 31.1424C113.056 31.1424 112.242 31.0544 111.472 30.8784C110.724 30.7024 109.943 30.4384 109.129 30.0864V34.6404C109.129 35.8284 108.392 36.4224 106.918 36.4224C105.444 36.4224 104.707 35.8284 104.707 34.6404V12.1014C104.707 10.9134 105.444 10.3194 106.918 10.3194C108.216 10.3194 108.92 10.7924 109.03 11.7384L109.063 12.2994H109.294C110.394 11.5514 111.362 11.0344 112.198 10.7484C113.034 10.4624 113.881 10.3194 114.739 10.3194C115.839 10.3194 116.818 10.4954 117.676 10.8474C118.534 11.1994 119.26 11.7824 119.854 12.5964C120.448 13.3884 120.899 14.4444 121.207 15.7644C121.515 17.0624 121.669 18.6574 121.669 20.5494ZM116.95 20.4504C116.95 19.1524 116.873 18.0964 116.719 17.2824C116.565 16.4464 116.334 15.7974 116.026 15.3354C115.718 14.8514 115.333 14.5214 114.871 14.3454C114.431 14.1694 113.925 14.0814 113.353 14.0814C112.781 14.0814 112.165 14.1914 111.505 14.4114C110.867 14.6314 110.075 15.0274 109.129 15.5994V26.8524C109.811 27.0944 110.46 27.2704 111.076 27.3804C111.692 27.4904 112.22 27.5454 112.66 27.5454C113.276 27.5454 113.848 27.4574 114.376 27.2814C114.904 27.1054 115.355 26.7644 115.729 26.2584C116.103 25.7524 116.4 25.0374 116.62 24.1134C116.84 23.1674 116.95 21.9464 116.95 20.4504Z" fill="white"/>
<path d="M137.096 12.5634C137.096 13.2234 136.964 13.7074 136.7 14.0154C136.436 14.3014 136.051 14.4444 135.545 14.4444H131.354V25.7304C131.354 26.1484 131.431 26.4564 131.585 26.6544C131.761 26.8524 132.058 26.9514 132.476 26.9514C132.85 26.9514 133.213 26.9074 133.565 26.8194C133.939 26.7314 134.28 26.6434 134.588 26.5554C134.918 26.4454 135.215 26.3464 135.479 26.2584C135.743 26.1704 135.974 26.1264 136.172 26.1264C136.546 26.1264 136.843 26.2914 137.063 26.6214C137.305 26.9294 137.426 27.4134 137.426 28.0734C137.426 28.7554 137.294 29.2394 137.03 29.5254C136.788 29.7894 136.447 30.0094 136.007 30.1854C135.281 30.4934 134.511 30.7244 133.697 30.8784C132.905 31.0544 132.157 31.1424 131.453 31.1424C129.825 31.1424 128.67 30.7244 127.988 29.8884C127.306 29.0304 126.965 27.8204 126.965 26.2584V14.4444H125.876C125.414 14.4444 125.051 14.2904 124.787 13.9824C124.523 13.6744 124.391 13.1904 124.391 12.5304C124.391 11.8704 124.523 11.3974 124.787 11.1114C125.051 10.8034 125.414 10.6494 125.876 10.6494H126.965V7.44844C126.965 6.74444 127.218 6.24944 127.724 5.96344C128.23 5.65544 128.868 5.50144 129.638 5.50144C130.276 5.50144 130.716 5.65544 130.958 5.96344C131.222 6.24944 131.354 6.67844 131.354 7.25044V10.6494H135.545C136.579 10.6494 137.096 11.2874 137.096 12.5634Z" fill="white"/>
<path d="M156.548 29.3604C156.548 30.5484 155.811 31.1424 154.337 31.1424C153.567 31.1424 153.028 31.0104 152.72 30.7464C152.412 30.4824 152.236 30.1304 152.192 29.6904V29.0634H151.895C151.147 29.4594 150.476 29.7894 149.882 30.0534C149.288 30.3174 148.738 30.5374 148.232 30.7134C147.726 30.8674 147.231 30.9774 146.747 31.0434C146.285 31.1094 145.812 31.1424 145.328 31.1424C143.612 31.1424 142.391 30.7464 141.665 29.9544C140.939 29.1404 140.576 27.9084 140.576 26.2584V12.1014C140.576 10.9134 141.313 10.3194 142.787 10.3194C144.261 10.3194 144.998 10.9134 144.998 12.1014V25.1694C144.998 25.8294 145.108 26.3134 145.328 26.6214C145.57 26.9294 146.131 27.0834 147.011 27.0834C147.781 27.0834 148.584 26.9844 149.42 26.7864C150.256 26.5884 151.158 26.2474 152.126 25.7634V12.1014C152.126 10.9134 152.863 10.3194 154.337 10.3194C155.811 10.3194 156.548 10.9134 156.548 12.1014V29.3604Z" fill="white"/>
<path d="M176.112 29.3604C176.112 30.5484 175.375 31.1424 173.901 31.1424C172.427 31.1424 171.69 30.5484 171.69 29.3604V16.3254C171.69 15.6434 171.569 15.1484 171.327 14.8404C171.107 14.5324 170.557 14.3784 169.677 14.3784C168.907 14.3784 168.071 14.4884 167.169 14.7084C166.289 14.9064 165.365 15.2474 164.397 15.7314V29.3604C164.397 30.5484 163.66 31.1424 162.186 31.1424C160.712 31.1424 159.975 30.5484 159.975 29.3604V12.1014C159.975 10.9134 160.712 10.3194 162.186 10.3194C163.484 10.3194 164.188 10.7924 164.298 11.7384L164.331 12.4644H164.628C165.376 12.0464 166.058 11.7054 166.674 11.4414C167.29 11.1554 167.862 10.9354 168.39 10.7814C168.918 10.6054 169.413 10.4844 169.875 10.4184C170.359 10.3524 170.854 10.3194 171.36 10.3194C173.076 10.3194 174.297 10.7264 175.023 11.5404C175.749 12.3324 176.112 13.5644 176.112 15.2364V29.3604Z" fill="white"/>
<path d="M195.584 18.8004C195.584 19.3724 195.551 19.8454 195.485 20.2194C195.419 20.5714 195.298 20.8574 195.122 21.0774C194.968 21.2754 194.759 21.4184 194.495 21.5064C194.231 21.5724 193.901 21.6054 193.505 21.6054L184.166 21.8364C184.166 22.8704 184.243 23.7284 184.397 24.4104C184.551 25.0924 184.793 25.6534 185.123 26.0934C185.475 26.5114 185.915 26.8084 186.443 26.9844C186.993 27.1604 187.642 27.2484 188.39 27.2484C188.94 27.2484 189.49 27.2044 190.04 27.1164C190.59 27.0064 191.096 26.8964 191.558 26.7864C192.042 26.6544 192.471 26.5444 192.845 26.4564C193.241 26.3464 193.538 26.2914 193.736 26.2914C194.066 26.2914 194.352 26.4454 194.594 26.7534C194.858 27.0394 194.99 27.5454 194.99 28.2714C194.99 28.9754 194.847 29.4594 194.561 29.7234C194.297 29.9874 193.945 30.1854 193.505 30.3174C192.647 30.5814 191.767 30.7794 190.865 30.9114C189.985 31.0654 189.16 31.1424 188.39 31.1424C186.938 31.1424 185.651 30.9444 184.529 30.5484C183.429 30.1524 182.505 29.5474 181.757 28.7334C181.031 27.8974 180.47 26.8414 180.074 25.5654C179.7 24.2674 179.513 22.7164 179.513 20.9124C179.513 19.0424 179.711 17.4474 180.107 16.1274C180.525 14.7854 181.097 13.6854 181.823 12.8274C182.571 11.9694 183.473 11.3424 184.529 10.9464C185.585 10.5284 186.762 10.3194 188.06 10.3194C190.524 10.3194 192.394 10.9904 193.67 12.3324C194.946 13.6744 195.584 15.8304 195.584 18.8004ZM191.228 17.6124C191.228 16.8644 191.14 16.2374 190.964 15.7314C190.81 15.2034 190.59 14.7854 190.304 14.4774C190.018 14.1694 189.677 13.9494 189.281 13.8174C188.907 13.6854 188.489 13.6194 188.027 13.6194C187.433 13.6194 186.905 13.7074 186.443 13.8834C185.981 14.0594 185.585 14.3564 185.255 14.7744C184.947 15.1924 184.694 15.7534 184.496 16.4574C184.32 17.1394 184.221 17.9864 184.199 18.9984L191.195 18.8664C191.217 18.6244 191.228 18.3934 191.228 18.1734V17.6124Z" fill="white"/>
<rect width="36" height="39" fill="black" fill-opacity="0"/>
<path d="M24 2C24 0.89543 24.8954 0 26 0C27.1046 0 28 0.895431 28 2V37C28 38.1046 27.1046 39 26 39C24.8954 39 24 38.1046 24 37V2Z" fill="white"/>
<path d="M16 9C16 7.89543 16.8954 7 18 7C19.1046 7 20 7.89543 20 9V29.375C20 30.4796 19.1046 31.375 18 31.375C16.8954 31.375 16 30.4796 16 29.375V9Z" fill="white"/>
<path d="M32 11C32 9.89543 32.8954 9 34 9C35.1046 9 36 9.89543 36 11V26.5C36 27.6046 35.1046 28.5 34 28.5C32.8954 28.5 32 27.6046 32 26.5V11Z" fill="white"/>
<path d="M8 16.625C8 15.5204 8.89543 14.625 10 14.625C11.1046 14.625 12 15.5204 12 16.625V22.375C12 23.4796 11.1046 24.375 10 24.375C8.89543 24.375 8 23.4796 8 22.375V16.625Z" fill="white"/>
<path d="M0 14.1875C0 13.0829 0.895431 12.1875 2 12.1875C3.10457 12.1875 4 13.0829 4 14.1875V24.8125C4 25.9171 3.10457 26.8125 2 26.8125C0.895431 26.8125 0 25.9171 0 24.8125V14.1875Z" fill="white"/>
</svg>
